# xmcd CD database file
#
# Track frame offsets:
#	150
#	20520
#	37974
#	53784
#	70160
#	84519
#	100188
#	121936
#	136713
#
# Disc length: 2021 seconds
#
# Revision: 2
# Processed by: cddbd v1.5.2PL0 Copyright (c) Steve Scherf et al.
# Submitted via: CDex 1.70beta2
#
DISCID=6a07e309
DTITLE=TIS - VINTAGE 
DYEAR=1999
DGENRE=Blues
TTITLE0=啼笑姻緣
TTITLE1=千言萬語
TTITLE2=蝦妹共你
TTITLE3=情人的眼淚
TTITLE4=我的心裡只有你
TTITLE5=今宵多珍重
TTITLE6=月亮代表我的心
TTITLE7=春風吻上我的臉
TTITLE8=你的眼神
EXTD=YEAR: 1999
EXTT0=
EXTT1=
EXTT2=
EXTT3=
EXTT4=
EXTT5=
EXTT6=
EXTT7=
EXTT8=
PLAYORDER=
